<svg width="15" height="26" viewBox="0 0 15 26" fill="none" xmlns="http://www.w3.org/2000/svg">
<path d="M14.0752 1.74707C14.0804 2.28531 14.0518 2.97407 14.0518 4.02539V22.7754C14.0453 23.3057 14.047 23.7621 14.0498 24.1475C14.0527 24.5371 14.0564 24.8461 14.0527 25.0928C14.0525 25.1061 14.051 25.1191 14.0508 25.1318C14.0297 25.1134 14.0073 25.0946 13.9844 25.0742C13.6213 24.7513 13.0733 24.2334 12.3174 23.5996L2.78125 14.8242L2.77051 14.8154L1.24316 13.4844L2.78223 12.0293L12.3281 3.19141L12.3301 3.18848C13.0987 2.46754 13.6155 1.95735 13.9893 1.62988C14.0168 1.60576 14.0438 1.58438 14.0684 1.56348C14.0701 1.61874 14.0745 1.67978 14.0752 1.74707Z" fill="black" stroke="black"/>
</svg>
