<?xml version="1.0" encoding="utf-8"?>
<!-- Generator: Adobe Illustrator 24.0.1, SVG Export Plug-In . SVG Version: 6.00 Build 0)  -->
<svg version="1.1" id="Calque_1" xmlns="http://www.w3.org/2000/svg" xmlns:xlink="http://www.w3.org/1999/xlink" x="0px" y="0px"
	 viewBox="0 0 53 52.9" style="enable-background:new 0 0 53 52.9;" xml:space="preserve">
<style type="text/css">
	.st0{fill:#1A1A1B;}
</style>
<path class="st0" d="M26.5,0.2C12,0.2,0.3,11.9,0.3,26.4S12,52.6,26.5,52.6s26.2-11.7,26.2-26.2S41,0.2,26.5,0.2z M30.3,12.5
	c1.1,0,2,0.9,2,2c0,1.1-0.9,2-2,2s-2-0.9-2-2C28.3,13.4,29.2,12.5,30.3,12.5z M34.2,31.5c-0.3,0.9-0.7,1.7-1.2,2.4
	c-0.4,0.7-1,1.4-1.6,2c-1.3,1.4-3,2.5-4.8,3.2c-1.6,0.5-3.3,0.6-5,0.2c-1.7-0.4-3.2-1.3-4.4-2.6c-1.5-1.4-2.6-3.2-3.2-5.1
	c-0.5-1.7-0.5-3.5,0-5.2s1.5-3.2,2.8-4.5c0.8-0.8,1.7-1.5,2.7-2.1c0.9-0.5,1.8-0.9,2.7-1.2l1.7,3.5c-0.7,0.3-1.4,0.6-2.1,1
	s-1.3,0.8-1.9,1.4c-1.3,1.2-2.1,2.8-2.3,4.5c0.1,1.8,0.8,3.4,2.2,4.6c0.8,0.8,1.8,1.4,2.8,1.7s2.1,0.2,3.2-0.1
	c1.1-0.4,2.1-1,2.9-1.9c0.7-0.6,1.2-1.4,1.6-2.3l-1.7-1.7l-2.4,2.4L23.5,29l5.2-5.2l5.9,5.9C34.6,30.3,34.5,30.9,34.2,31.5z
	 M38.8,25.1c-1.1,0-2-0.9-2-2s0.9-2,2-2s2,0.9,2,2S39.9,25.1,38.8,25.1z"/>
</svg>
