<svg width="473" height="473" viewBox="0 0 473 473" fill="none" xmlns="http://www.w3.org/2000/svg">
<rect width="473" height="473" rx="236.5" fill="#0ACEB8"/>
<path d="M237 95.0813C158.755 95.0813 95.6189 158.336 95.6189 236.73C95.6189 315.123 158.755 378.378 237 378.378C315.245 378.378 378.381 315.123 378.381 236.73C378.381 158.336 315.245 95.0813 237 95.0813ZM257.506 161.58C263.442 161.58 268.298 166.446 268.298 172.393C268.298 178.34 263.442 183.206 257.506 183.206C251.57 183.206 246.713 178.34 246.713 172.393C246.713 166.446 251.57 161.58 257.506 161.58ZM278.551 264.302C276.932 269.168 274.774 273.493 272.076 277.278C269.917 281.062 266.679 284.847 263.442 288.091C256.426 295.66 247.253 301.607 237.54 305.391C228.906 308.095 219.732 308.635 210.559 306.473C201.385 304.31 193.291 299.444 186.815 292.416C178.721 284.847 172.785 275.115 169.547 264.843C166.849 255.652 166.849 245.921 169.547 236.73C172.245 227.539 177.642 219.429 184.657 212.401C188.974 208.076 193.83 204.291 199.226 201.047C204.083 198.344 208.94 196.181 213.796 194.56L222.97 213.482C219.192 215.104 215.415 216.726 211.638 218.888C207.86 221.051 204.623 223.214 201.385 226.457C194.37 232.945 190.053 241.595 188.974 250.786C189.513 260.518 193.291 269.168 200.845 275.656C205.162 279.981 210.559 283.225 215.955 284.847C221.351 286.469 227.287 285.928 233.223 284.306C239.159 282.144 244.555 278.9 248.872 274.034C252.649 270.79 255.347 266.465 257.506 261.599L248.332 252.408L235.381 265.384L220.811 250.786L248.872 222.673L280.709 254.571C280.709 257.815 280.17 261.059 278.551 264.302ZM303.374 229.701C297.438 229.701 292.581 224.836 292.581 218.888C292.581 212.941 297.438 208.076 303.374 208.076C309.309 208.076 314.166 212.941 314.166 218.888C314.166 224.836 309.309 229.701 303.374 229.701Z" fill="#1A1A1B"/>
</svg>
