<?xml version="1.0" encoding="utf-8"?>
<!-- Generator: Adobe Illustrator 22.0.1, SVG Export Plug-In . SVG Version: 6.00 Build 0)  -->
<svg version="1.1" id="Calque_1" xmlns="http://www.w3.org/2000/svg" xmlns:xlink="http://www.w3.org/1999/xlink" x="0px" y="0px"
	 viewBox="0 0 54.2 12.4" style="enable-background:new 0 0 54.2 12.4;" xml:space="preserve">
<style type="text/css">
	.st0{fill:#000;}
</style>
<path class="st0" d="M16.1,4.1v1.5h-3.7v1.6h3.2v1.4h-3.2v1.6h3.8v1.4h-5.3V4.1H16.1z"/>
<path class="st0" d="M26.6,4.1V12l0,0l-5.3-4.8v4.5h-1.5V3.8h0.1l5.3,4.8V4.1H26.6z"/>
<path class="st0" d="M34.8,4.1v1.5h-3.7v1.6h3.2v1.4h-3.2v1.6h3.8v1.5h-5.3V4.1H34.8z"/>
<path class="st0" d="M40.9,5.4c-0.3,0-0.5,0-0.8,0.2c-0.2,0.1-0.3,0.4-0.3,0.6c0,0.3,0.2,0.5,0.4,0.6c0.3,0.2,0.7,0.4,1.1,0.5
	c0.3,0.1,0.6,0.3,0.9,0.4c0.3,0.2,0.5,0.4,0.6,0.7c0.2,0.3,0.3,0.7,0.3,1.1c0,0.4-0.1,0.8-0.3,1.1c-0.2,0.3-0.5,0.6-0.9,0.8
	c-0.4,0.2-0.9,0.3-1.4,0.3c-0.5,0-0.9-0.1-1.3-0.2c-0.4-0.1-0.9-0.3-1.2-0.6l0.7-1.2c0.3,0.2,0.6,0.4,0.9,0.5
	c0.3,0.1,0.6,0.2,0.9,0.2c0.3,0,0.6-0.1,0.8-0.2c0.2-0.1,0.4-0.4,0.3-0.7c0-0.4-0.4-0.7-1.1-1c-0.4-0.1-0.7-0.3-1.1-0.5
	c-0.3-0.2-0.5-0.4-0.7-0.7c-0.2-0.3-0.3-0.7-0.3-1.1c0-0.6,0.2-1.2,0.7-1.6c0.5-0.4,1.1-0.6,1.7-0.7c0.5,0,1,0.1,1.4,0.2
	c0.4,0.1,0.8,0.3,1.1,0.5L42.6,6C42.1,5.7,41.5,5.5,40.9,5.4z"/>
<path class="st0" d="M49.1,4.5l-2,7.3l-1.4-0.4l2-7.3L49.1,4.5z"/>
<path class="st0" d="M53.6,4.1v7.6h-1.5V4.1H53.6z"/>
<path class="st0" d="M6.5,11.6c-0.3,0.1-0.7,0.3-1,0.3c-0.3,0.1-0.7,0.1-1,0.1c-0.8,0-1.5-0.1-2.2-0.5c-0.6-0.3-1.1-0.8-1.5-1.3
	c-0.4-0.6-0.5-1.3-0.5-2c0-0.8,0.2-1.6,0.5-2.3c0.3-0.6,0.8-1.1,1.5-1.4C2.9,4.2,3.6,4,4.3,4c0.5,0,0.9,0.1,1.3,0.2
	C6,4.3,6.4,4.4,6.8,4.6L6.3,6C6,5.9,5.7,5.8,5.4,5.7C5.1,5.6,4.8,5.6,4.5,5.6c-0.7-0.1-1.4,0.2-2,0.6C2,6.7,1.8,7.4,1.8,8.1
	c0,0.4,0.1,0.9,0.3,1.3c0.2,0.4,0.5,0.6,0.9,0.8c0.4,0.2,0.9,0.3,1.3,0.3c0.4,0,0.7,0,1.1-0.2v-1H4.2V7.8h2.9v3.3
	C6.9,11.3,6.7,11.5,6.5,11.6z"/>
<circle class="st0" cx="49" cy="1.1" r="0.8"/>
<path class="st0" d="M53.5,1.4c0,0.4-0.3,0.8-0.8,0.8S52,1.8,52,1.4c0-0.4,0.3-0.8,0.8-0.8h0C53.2,0.6,53.5,1,53.5,1.4z"/>
</svg>
